<svg width="48" height="48" viewBox="0 0 48 48" fill="none" xmlns="http://www.w3.org/2000/svg">
<path d="M19.2912 28.0385L30.7203 16.6094" stroke="#AD80CE" stroke-width="6" stroke-linecap="round"/>
<path d="M42.3026 3.05354C42.5757 2.98141 42.8629 2.98217 43.1356 3.05576C43.4083 3.12935 43.6569 3.27318 43.8567 3.4729C44.0564 3.67261 44.2002 3.92123 44.2738 4.19392C44.3474 4.46661 44.3481 4.75383 44.276 5.02691L34.2709 43.0554C34.1986 43.3305 34.055 43.5816 33.8545 43.7833C33.654 43.985 33.4038 44.1302 33.1292 44.2042C32.8546 44.2781 32.5653 44.2783 32.2906 44.2045C32.0159 44.1308 31.7656 43.9858 31.565 43.7842L3.54537 15.7683C3.3438 15.5677 3.1988 15.3174 3.12505 15.0427C3.0513 14.768 3.05142 14.4787 3.12538 14.2041C3.19935 13.9295 3.34454 13.6793 3.54627 13.4788C3.74799 13.2783 3.9991 13.1347 4.27417 13.0624L42.3026 3.05354Z" stroke="#0E081A" stroke-width="6"/>
</svg>
