<svg width="23" height="48" viewBox="0 0 23 48" fill="none" xmlns="http://www.w3.org/2000/svg">
<path d="M4.87454 11.7759H18.1427" stroke="#AD80CE" stroke-width="6" stroke-linecap="round" stroke-linejoin="round"/>
<path d="M3.54774 6.98044C3.54774 5.92476 3.96711 4.91232 4.71359 4.16584C5.46006 3.41937 6.47251 3 7.52818 3H15.4891C16.5447 3 17.5572 3.41937 18.3037 4.16584C19.0501 4.91232 19.4695 5.92476 19.4695 6.98044V36.9664C19.4693 37.5498 19.3408 38.1261 19.0932 38.6544C18.8456 39.1826 18.4848 39.65 18.0365 40.0234L14.0561 43.3378C13.3409 43.9335 12.4395 44.2597 11.5086 44.2597C10.5778 44.2597 9.67638 43.9335 8.96114 43.3378L4.9807 40.0234C4.53241 39.65 4.17168 39.1826 3.92406 38.6544C3.67643 38.1261 3.54796 37.5498 3.54774 36.9664V6.98044Z" stroke="#0E081A" stroke-width="6"/>
</svg>
