<svg width="50" height="50" viewBox="0 0 50 50" fill="none" xmlns="http://www.w3.org/2000/svg">
<circle cx="25" cy="25" r="25" fill="#AD80CE"/>
<path d="M20.0572 34C19.8012 34 19.6732 33.872 19.6732 33.616V31.024C19.6732 30.88 19.7292 30.728 19.8412 30.568L24.7852 25.72C25.1532 25.368 25.4172 25.112 25.5772 24.952C25.7372 24.776 25.9452 24.456 26.2012 23.992C26.4732 23.528 26.6092 23.08 26.6092 22.648C26.6092 22.072 26.4092 21.608 26.0092 21.256C25.6252 20.888 25.1132 20.704 24.4732 20.704C23.5452 20.704 22.6972 21.208 21.9292 22.216C21.7532 22.408 21.5612 22.4 21.3532 22.192L19.5052 20.344C19.3292 20.168 19.3052 19.992 19.4332 19.816C20.7612 17.944 22.5612 17.008 24.8332 17.008C26.5132 17.008 27.8812 17.504 28.9372 18.496C30.0092 19.472 30.5452 20.728 30.5452 22.264C30.5452 23.864 29.8412 25.36 28.4332 26.752C28.3852 26.8 28.3532 26.832 28.3372 26.848L24.4972 30.592H30.1852C30.4412 30.592 30.5692 30.72 30.5692 30.976V33.616C30.5692 33.872 30.4412 34 30.1852 34H20.0572Z" fill="#FECC3F"/>
</svg>
