<svg width="50" height="50" viewBox="0 0 50 50" fill="none" xmlns="http://www.w3.org/2000/svg">
<circle cx="25" cy="25" r="25" fill="#AD80CE"/>
<path d="M24.8153 34.312C23.5993 34.312 22.5433 34.064 21.6473 33.568C20.7513 33.072 20.0473 32.432 19.5353 31.648C19.4073 31.424 19.4313 31.248 19.6073 31.12L21.6233 29.296C21.7993 29.12 21.9833 29.136 22.1753 29.344C22.8953 30.192 23.6873 30.616 24.5513 30.616C25.1913 30.616 25.6873 30.44 26.0393 30.088C26.3913 29.72 26.5673 29.288 26.5673 28.792C26.5673 28.344 26.4153 27.936 26.1113 27.568C25.8073 27.2 25.2953 27.016 24.5753 27.016H23.8553C23.5833 27.016 23.4473 26.88 23.4473 26.608V24.184C23.4473 23.928 23.5833 23.8 23.8553 23.8H24.5513C25.1273 23.8 25.5433 23.648 25.7993 23.344C26.0553 23.04 26.1833 22.696 26.1833 22.312C26.1833 21.832 26.0073 21.448 25.6553 21.16C25.3193 20.856 24.9033 20.704 24.4073 20.704C23.5433 20.704 22.8793 21.104 22.4153 21.904C22.2873 22.144 22.1033 22.16 21.8633 21.952L19.9913 20.104C19.7833 19.944 19.7513 19.768 19.8953 19.576C20.3913 18.808 21.0713 18.192 21.9353 17.728C22.7993 17.248 23.7753 17.008 24.8633 17.008C26.3033 17.008 27.5353 17.416 28.5593 18.232C29.5833 19.048 30.0953 20.16 30.0953 21.568C30.0953 22.48 29.8713 23.24 29.4233 23.848C28.9913 24.44 28.4553 24.872 27.8153 25.144C28.6313 25.48 29.3033 25.992 29.8313 26.68C30.3753 27.352 30.6473 28.216 30.6473 29.272C30.6473 30.776 30.0873 31.992 28.9673 32.92C27.8473 33.848 26.4633 34.312 24.8153 34.312Z" fill="#FECC3F"/>
</svg>
