<svg width="50" height="50" viewBox="0 0 50 50" fill="none" xmlns="http://www.w3.org/2000/svg">
<circle cx="25" cy="25" r="25" fill="#AD80CE"/>
<path d="M26.0278 34C25.7718 34 25.6438 33.872 25.6438 33.616V31.12H18.9238C18.6838 31.12 18.5638 31 18.5638 30.76V28.096C18.5638 27.936 18.6118 27.768 18.7078 27.592L25.4998 17.44C25.5958 17.28 25.7478 17.2 25.9558 17.2H29.3158C29.5558 17.2 29.6758 17.32 29.6758 17.56V27.808H31.0198C31.1318 27.808 31.2278 27.848 31.3078 27.928C31.3878 27.992 31.4278 28.08 31.4278 28.192V30.736C31.4278 30.848 31.3878 30.944 31.3078 31.024C31.2278 31.088 31.1318 31.12 31.0198 31.12H29.6758V33.616C29.6758 33.872 29.5478 34 29.2918 34H26.0278ZM22.4758 27.808H25.6438V23.104L22.4758 27.808Z" fill="#FECC3F"/>
</svg>
