<svg width="50" height="50" viewBox="0 0 50 50" fill="none" xmlns="http://www.w3.org/2000/svg">
<circle cx="25" cy="25" r="25" fill="#AD80CE"/>
<path d="M24.6407 34.312C23.3927 34.312 22.3207 34.048 21.4247 33.52C20.5287 32.976 19.8807 32.344 19.4807 31.624C19.3847 31.384 19.4487 31.176 19.6727 31L21.8327 29.368C22.0567 29.192 22.2647 29.224 22.4567 29.464C23.0167 30.232 23.7207 30.616 24.5687 30.616C25.3207 30.616 25.9047 30.392 26.3207 29.944C26.7527 29.48 26.9687 28.936 26.9687 28.312C26.9687 27.672 26.7447 27.136 26.2967 26.704C25.8487 26.256 25.2807 26.032 24.5927 26.032C24.0167 26.032 23.4647 26.248 22.9367 26.68C22.7127 26.904 22.5127 26.976 22.3367 26.896L20.0087 25.984C19.8007 25.888 19.7207 25.744 19.7687 25.552L21.6167 17.512C21.6647 17.304 21.7927 17.2 22.0007 17.2H29.4167C29.5287 17.2 29.6247 17.24 29.7047 17.32C29.7847 17.384 29.8247 17.472 29.8247 17.584V20.224C29.8247 20.336 29.7847 20.432 29.7047 20.512C29.6247 20.576 29.5287 20.608 29.4167 20.608H24.5687L24.0407 22.84C24.1367 22.84 24.3527 22.816 24.6887 22.768C25.0407 22.72 25.3527 22.696 25.6247 22.696C27.1607 22.696 28.4167 23.248 29.3927 24.352C30.3847 25.456 30.8807 26.808 30.8807 28.408C30.8807 30.168 30.2807 31.592 29.0807 32.68C27.8967 33.768 26.4167 34.312 24.6407 34.312Z" fill="#FECC3F"/>
</svg>
