<svg width="571" height="91" viewBox="0 0 571 91" fill="none" xmlns="http://www.w3.org/2000/svg">
<g clip-path="url(#clip0_155_1791)">
<path d="M26.2529 73.1023C18.6662 73.1023 12.3922 70.6122 7.4309 65.6098C2.4918 60.6073 0 54.4043 0 46.9562C0 39.7082 2.42505 33.6608 7.29741 28.7473C12.1698 23.856 18.3103 21.4104 25.7634 21.4104C34.0175 21.4104 40.4472 24.4563 45.0749 30.5704C45.6756 31.3041 45.6088 32.0378 44.8746 32.7715L37.1322 40.2196C36.1978 41.1534 35.2856 41.1534 34.418 40.2196C31.9929 38.0185 29.3899 36.9069 26.5643 36.9069C23.3384 36.9069 20.8021 37.8851 18.9777 39.8194C17.1311 41.7537 16.2189 44.1326 16.2189 46.9562C16.2189 49.8465 17.1756 52.3366 19.089 54.4488C21.0023 56.5609 23.6053 57.6059 26.8981 57.6059C29.6568 57.6059 32.1931 56.472 34.5515 54.182C35.4191 53.3149 36.3313 53.3371 37.2657 54.2931L45.0081 61.7412C45.7423 62.4749 45.809 63.2086 45.2083 63.9423C40.5585 70.0564 34.24 73.1023 26.2529 73.1023Z" fill="#FECC3F"/>
<path d="M83.4086 21.4105C88.637 21.4105 92.9086 23.2558 96.2458 26.9465C99.5608 30.6372 101.229 35.5952 101.229 41.8204V70.2788C101.229 70.7457 101.051 71.1236 100.718 71.4349C100.384 71.7462 99.9835 71.8796 99.5163 71.8796H85.9227C84.8548 71.8796 84.3208 71.346 84.3208 70.2788V46.0447C84.3208 39.9528 81.829 36.8847 76.8677 36.8847C71.8396 36.8847 69.3255 39.9306 69.3255 46.0447V70.2788C69.3255 71.346 68.7916 71.8796 67.7237 71.8796H54.041C52.9731 71.8796 52.4391 71.346 52.4391 70.2788V1.60078C52.4169 0.533594 52.9509 0 54.041 0H67.7237C68.7916 0 69.3255 0.533594 69.3255 1.60078V29.859C72.4848 24.2341 77.1791 21.4105 83.4086 21.4105Z" fill="#FECC3F"/>
<path d="M112.286 71.9018C111.219 71.9018 110.685 71.3682 110.685 70.301V24.2341C110.685 23.1669 111.219 22.6333 112.286 22.6333H126.169C127.237 22.6333 127.771 23.1669 127.771 24.2341V70.2788C127.771 71.346 127.237 71.8796 126.169 71.8796H112.286V71.9018Z" fill="#FECC3F"/>
<path d="M138.962 90.9999C137.894 90.9999 137.36 90.4663 137.36 89.3992V24.234C137.36 23.1668 137.894 22.6332 138.962 22.6332H151.443C152.511 22.6332 153.045 23.1668 153.045 24.234L153.246 28.2582C156.538 23.7004 161.455 21.4104 168.041 21.4104C174.737 21.4104 180.255 23.9005 184.549 28.8585C188.843 33.8165 190.979 39.9528 190.979 47.2675C190.979 54.6489 188.82 60.7852 184.549 65.7209C180.255 70.6567 174.76 73.1023 168.041 73.1023C162.412 73.1023 157.851 71.257 154.358 67.5663V89.3769C154.358 90.4441 153.824 90.9777 152.756 90.9777H138.962V90.9999ZM156.961 54.8934C158.83 56.8277 161.255 57.806 164.214 57.806C167.173 57.806 169.62 56.8277 171.556 54.8934C173.491 52.9591 174.47 50.4023 174.47 47.2452C174.47 44.0881 173.491 41.5536 171.556 39.5971C169.598 37.6628 167.151 36.6845 164.214 36.6845C161.188 36.6845 158.763 37.6406 156.917 39.5526C155.07 41.4646 154.158 43.9992 154.158 47.1341C154.158 50.3801 155.092 52.9591 156.961 54.8934Z" fill="#FECC3F"/>
<path d="M218.344 73.1023C211.625 73.1023 206.13 70.6344 201.836 65.7209C197.542 60.7852 195.406 54.6489 195.406 47.2675C195.406 39.9528 197.542 33.8387 201.836 28.8585C206.13 23.9005 211.625 21.4104 218.344 21.4104C224.907 21.4104 229.846 23.7004 233.139 28.2582L233.339 24.234C233.339 23.1668 233.873 22.6332 234.941 22.6332H247.423C248.49 22.6332 249.024 23.1668 249.024 24.234V70.2787C249.024 70.7456 248.846 71.1236 248.513 71.4348C248.179 71.7461 247.779 71.8795 247.311 71.8795H234.941C233.873 71.8795 233.339 71.3459 233.339 70.2787L233.139 66.1656C229.579 70.7901 224.64 73.1023 218.344 73.1023ZM214.829 54.8934C216.765 56.8277 219.212 57.806 222.171 57.806C225.13 57.806 227.533 56.8277 229.424 54.8934C231.293 52.9591 232.249 50.3579 232.249 47.1563C232.249 43.9992 231.337 41.4646 229.49 39.5748C227.644 37.6628 225.219 36.7068 222.193 36.7068C219.234 36.7068 216.787 37.685 214.851 39.6193C212.916 41.5536 211.937 44.1104 211.937 47.2675C211.914 50.4023 212.871 52.9591 214.829 54.8934Z" fill="#FECC3F"/>
<path d="M274.988 54.2042C273.119 56.0718 270.827 57.0278 268.135 57.0278C265.443 57.0278 263.152 56.0941 261.238 54.2042C259.325 52.3367 258.368 50.0467 258.368 47.3565C258.368 44.5996 259.325 42.2873 261.238 40.3753C263.152 38.4632 265.443 37.5072 268.135 37.5072C270.827 37.5072 273.096 38.4632 274.988 40.3753C276.856 42.2873 277.813 44.6218 277.813 47.3565C277.791 50.0467 276.856 52.3144 274.988 54.2042Z" fill="#E3D6EA"/>
<path d="M309.116 72.4132C302.686 72.4132 297.414 70.0565 293.32 65.3431C289.204 60.6297 287.157 54.7379 287.157 47.6678C287.157 40.6644 289.204 34.7948 293.32 30.0369C297.436 25.2791 302.709 22.9224 309.116 22.9224C314.767 22.9224 319.15 24.6343 322.22 28.036V3.95754C322.22 2.93482 322.732 2.42346 323.756 2.42346H336.949C337.972 2.42346 338.484 2.93482 338.484 3.95754V69.723C338.484 70.1677 338.328 70.5456 337.994 70.8347C337.683 71.1237 337.282 71.2571 336.837 71.2571H324.979C323.956 71.2571 323.444 70.7457 323.444 69.723L323.244 65.7655C319.884 70.2121 315.145 72.4132 309.116 72.4132ZM305.734 54.9825C307.603 56.85 309.939 57.7838 312.765 57.7838C315.59 57.7838 317.904 56.85 319.706 54.9825C321.508 53.1149 322.398 50.647 322.398 47.5788C322.398 44.5551 321.508 42.1317 319.751 40.3086C317.993 38.4855 315.657 37.574 312.765 37.574C309.939 37.574 307.603 38.5078 305.734 40.3753C303.866 42.2429 302.931 44.6885 302.931 47.69C302.953 50.6915 303.888 53.1149 305.734 54.9825Z" fill="#FECC3F"/>
<path d="M350.164 71.2571C349.141 71.2571 348.629 70.7457 348.629 69.723V25.6126C348.629 24.5899 349.141 24.0785 350.164 24.0785H363.468C364.492 24.0785 365.004 24.5899 365.004 25.6126V69.723C365.004 70.7457 364.492 71.2571 363.468 71.2571H350.164Z" fill="#FECC3F"/>
<path d="M398.687 91C390.923 91 384.493 89.0435 379.42 85.1305C378.33 84.419 378.13 83.3963 378.842 82.0401L382.224 75.5036C382.869 74.2808 383.803 73.9917 385.027 74.6365C389.21 76.882 393.214 78.0159 397.063 78.0159C400.267 78.0159 403.003 77.2378 405.251 75.7037C407.498 74.1696 408.632 71.7017 408.632 68.3001V64.5427C405.607 68.2556 401.224 70.1232 395.439 70.1232C388.876 70.1232 383.603 67.9443 379.576 63.5867C375.549 59.229 373.547 53.5373 373.547 46.5339C373.547 39.5305 375.549 33.861 379.576 29.4811C383.581 25.1234 388.876 22.9446 395.439 22.9446C401.402 22.9446 405.851 24.8122 408.744 28.5251L409.033 25.6348C409.033 24.6121 409.544 24.1007 410.568 24.1007H422.515C423.539 24.1007 424.05 24.6121 424.05 25.6348V68.3001C424.05 72.5466 423.272 76.215 421.736 79.3277C420.201 82.4403 418.132 84.797 415.574 86.3978C412.993 87.9986 410.323 89.1769 407.52 89.9106C404.717 90.6221 401.78 91 398.687 91ZM391.946 53.2038C393.682 54.849 395.929 55.6494 398.687 55.6494C401.446 55.6494 403.671 54.8046 405.384 53.1371C407.075 51.4696 407.943 49.2241 407.943 46.4005C407.943 43.6436 407.097 41.4425 405.384 39.7973C403.671 38.152 401.446 37.3516 398.687 37.3516C395.929 37.3516 393.682 38.1965 391.946 39.864C390.211 41.5314 389.343 43.7547 389.343 46.5116C389.343 49.3352 390.211 51.5586 391.946 53.2038Z" fill="#FECC3F"/>
<path d="M435.686 71.2571C434.663 71.2571 434.151 70.7457 434.151 69.723V25.6126C434.151 24.5899 434.663 24.0785 435.686 24.0785H448.991C450.014 24.0785 450.526 24.5899 450.526 25.6126V69.723C450.526 70.7457 450.014 71.2571 448.991 71.2571H435.686Z" fill="#FECC3F"/>
<path d="M480.316 72.4132C475.689 72.4132 471.84 71.2126 468.747 68.8115C465.655 66.4103 464.119 62.4973 464.119 57.1169V36.5068H458.246C457.289 36.5068 456.8 35.9954 456.8 34.9727V25.6348C456.8 24.6121 457.289 24.1007 458.246 24.1007H464.119V13.0954C464.119 12.0726 464.631 11.5613 465.655 11.5613H478.959C479.982 11.5613 480.494 12.0726 480.494 13.0954V24.0785H487.525C488.548 24.0785 489.06 24.5899 489.06 25.6126V34.9505C489.06 35.9732 488.548 36.4846 487.525 36.4846H480.494V55.3605C480.494 56.5166 480.872 57.4059 481.651 58.0507C482.43 58.6954 483.386 59.0067 484.543 59.0067C485.633 59.0067 486.635 58.9844 487.525 58.9177C488.615 58.9177 489.171 59.4069 489.171 60.3629V69.2117C489.171 70.3011 488.259 71.1015 486.434 71.6128C484.61 72.1687 482.563 72.4132 480.316 72.4132Z" fill="#FECC3F"/>
<path d="M515.29 72.4132C508.86 72.4132 503.587 70.0565 499.494 65.3431C495.378 60.6297 493.331 54.7379 493.331 47.6678C493.331 40.6644 495.378 34.7948 499.494 30.0369C503.61 25.2791 508.883 22.9224 515.29 22.9224C521.586 22.9224 526.303 25.1012 529.462 29.4589L529.662 25.6126C529.662 24.5898 530.174 24.0785 531.197 24.0785H543.145C544.168 24.0785 544.68 24.5898 544.68 25.6126V69.723C544.68 70.1677 544.524 70.5456 544.19 70.8347C543.879 71.1237 543.478 71.2571 543.034 71.2571H531.175C530.152 71.2571 529.64 70.7457 529.64 69.723L529.44 65.7655C526.058 70.2121 521.319 72.4132 515.29 72.4132ZM511.908 54.9825C513.777 56.85 516.113 57.7838 518.939 57.7838C521.764 57.7838 524.078 56.85 525.88 54.9825C527.682 53.1149 528.572 50.647 528.572 47.5788C528.572 44.5551 527.682 42.1317 525.925 40.3086C524.167 38.4855 521.831 37.574 518.939 37.574C516.113 37.574 513.777 38.5078 511.908 40.3753C510.039 42.2429 509.105 44.6886 509.105 47.69C509.127 50.6915 510.062 53.1149 511.908 54.9825Z" fill="#FECC3F"/>
<path d="M556.249 71.2571C555.226 71.2571 554.714 70.7457 554.714 69.723V3.95754C554.714 2.93482 555.226 2.42346 556.249 2.42346H569.442C570.466 2.42346 570.977 2.93482 570.977 3.95754V69.723C570.977 70.7457 570.466 71.2571 569.442 71.2571H556.249Z" fill="#FECC3F"/>
</g>
<defs>
<clipPath id="clip0_155_1791">
<rect width="571" height="91" fill="white"/>
</clipPath>
</defs>
</svg>
