<svg width="31" height="21" viewBox="0 0 31 21" fill="none" xmlns="http://www.w3.org/2000/svg">
<path fill-rule="evenodd" clip-rule="evenodd" d="M5.53848 1C5.53848 0.447715 5.9862 0 6.53848 0H25C25.5523 0 26 0.447715 26 1C26 1.55228 25.5523 2 25 2H6.53848C5.9862 2 5.53848 1.55228 5.53848 1ZM0.923096 10.2308C0.923096 9.67848 1.37081 9.23077 1.9231 9.23077H29.6154C30.1677 9.23077 30.6154 9.67848 30.6154 10.2308C30.6154 10.7831 30.1677 11.2308 29.6154 11.2308H1.9231C1.37081 11.2308 0.923096 10.7831 0.923096 10.2308ZM5.53848 19.4615C5.53848 18.9093 5.9862 18.4615 6.53848 18.4615H25C25.5523 18.4615 26 18.9093 26 19.4615C26 20.0138 25.5523 20.4615 25 20.4615H6.53848C5.9862 20.4615 5.53848 20.0138 5.53848 19.4615Z" fill="#4A325B"/>
</svg>
