<svg width="184" height="60" viewBox="0 0 184 60" fill="none" xmlns="http://www.w3.org/2000/svg">
<path d="M17.3021 48.1952C12.3113 48.1952 8.17676 46.5469 4.90788 43.2596C1.639 39.9631 0 35.8655 0 30.9576C0 26.1878 1.60218 22.1823 4.8066 18.9594C8.01102 15.7366 12.0627 14.116 16.9706 14.116C22.4034 14.116 26.6483 16.1233 29.6961 20.1473C30.0921 20.6353 30.046 21.1233 29.5672 21.6022L24.466 26.5101C23.8491 27.127 23.2505 27.127 22.6796 26.5101C21.0866 25.0552 19.3647 24.3185 17.5046 24.3185C15.3868 24.3185 13.7109 24.9631 12.4955 26.2431C11.28 27.523 10.6722 29.0976 10.6722 30.9484C10.6722 32.8453 11.2984 34.4935 12.5599 35.8839C13.8214 37.2744 15.534 37.9742 17.698 37.9742C19.5119 37.9742 21.1879 37.2191 22.7349 35.7182C23.3058 35.1473 23.9042 35.1657 24.5212 35.7826L29.6225 40.6905C30.1105 41.1786 30.1566 41.6666 29.7514 42.1454C26.7128 46.1878 22.5599 48.1952 17.3021 48.1952Z" fill="#0E081A"/>
<path d="M54.9632 14.1252C58.4071 14.1252 61.2247 15.3407 63.4162 17.7716C65.6077 20.2026 66.6944 23.4715 66.6944 27.5875V46.3536C66.6944 46.6667 66.5839 46.9153 66.3629 47.1179C66.1419 47.3204 65.8747 47.4125 65.5709 47.4125H56.6206C55.9116 47.4125 55.5617 47.0626 55.5617 46.3536V30.3683C55.5617 26.3444 53.9227 24.337 50.6538 24.337C47.3389 24.337 45.6814 26.3536 45.6814 30.3683V46.3444C45.6814 47.0534 45.3315 47.4033 44.6224 47.4033H35.6078C34.8988 47.4033 34.5488 47.0534 34.5488 46.3444V1.05894C34.5488 0.349916 34.8988 0 35.6078 0H44.6224C45.3315 0 45.6814 0.349916 45.6814 1.05894V19.6869C47.7532 15.9761 50.8472 14.1252 54.9632 14.1252Z" fill="#0E081A"/>
<path d="M73.9871 47.4034C73.2781 47.4034 72.9283 47.0535 72.9283 46.3445V15.9762C72.9283 15.2672 73.2781 14.9172 73.9871 14.9172H83.14C83.8491 14.9172 84.199 15.2672 84.199 15.9762V46.3445C84.199 47.0535 83.8491 47.4034 83.14 47.4034H73.9871Z" fill="#0E081A"/>
<path d="M91.5563 59.9999C90.8472 59.9999 90.4973 59.65 90.4973 58.941V15.976C90.4973 15.267 90.8472 14.9171 91.5563 14.9171H99.779C100.488 14.9171 100.838 15.267 100.838 15.976L100.967 18.6279C103.131 15.6261 106.381 14.116 110.709 14.116C115.129 14.116 118.757 15.755 121.584 19.0239C124.411 22.2928 125.829 26.3351 125.829 31.1602C125.829 36.0221 124.411 40.0736 121.584 43.3241C118.757 46.5745 115.129 48.1952 110.709 48.1952C106.998 48.1952 103.987 46.9797 101.694 44.5487V58.9318C101.694 59.6408 101.344 59.9908 100.635 59.9908H91.5563V59.9999ZM103.426 36.197C104.659 37.4769 106.252 38.1215 108.195 38.1215C110.138 38.1215 111.75 37.4769 113.039 36.197C114.319 34.9171 114.963 33.232 114.963 31.1602C114.963 29.0791 114.319 27.4033 113.039 26.1233C111.759 24.8434 110.147 24.1989 108.195 24.1989C106.206 24.1989 104.604 24.825 103.389 26.0865C102.173 27.348 101.565 29.0147 101.565 31.0957C101.565 33.2136 102.182 34.9171 103.426 36.197Z" fill="#0E081A"/>
<path d="M143.867 48.1952C139.448 48.1952 135.82 46.5745 132.993 43.3241C130.166 40.0736 128.748 36.0221 128.748 31.1602C128.748 26.3443 130.166 22.302 132.993 19.0239C135.82 15.755 139.448 14.116 143.867 14.116C148.195 14.116 151.446 15.6169 153.61 18.6279L153.738 15.976C153.738 15.267 154.088 14.9171 154.797 14.9171H163.02C163.729 14.9171 164.079 15.267 164.079 15.976V46.3443C164.079 46.6574 163.969 46.906 163.748 47.1086C163.527 47.3112 163.26 47.4033 162.956 47.4033H154.797C154.088 47.4033 153.738 47.0534 153.738 46.3443L153.61 43.6279C151.271 46.6758 148.02 48.1952 143.867 48.1952ZM141.547 36.197C142.827 37.4769 144.438 38.1215 146.39 38.1215C148.333 38.1215 149.926 37.4769 151.16 36.197C152.394 34.9171 153.02 33.2136 153.02 31.0957C153.02 29.0147 152.413 27.348 151.197 26.0865C149.982 24.825 148.379 24.1989 146.39 24.1989C144.448 24.1989 142.836 24.8434 141.547 26.1233C140.267 27.4033 139.623 29.0884 139.623 31.1602C139.623 33.2412 140.258 34.9171 141.547 36.197Z" fill="#0E081A"/>
<path d="M181.188 35.7366C179.954 36.9705 178.444 37.5966 176.676 37.5966C174.908 37.5966 173.398 36.9797 172.136 35.7366C170.875 34.4935 170.249 32.9926 170.249 31.2246C170.249 29.4106 170.875 27.8729 172.136 26.6206C173.398 25.3683 174.908 24.7329 176.676 24.7329C178.444 24.7329 179.945 25.3591 181.188 26.6206C182.422 27.8821 183.048 29.4198 183.048 31.2246C183.039 32.9926 182.422 34.4935 181.188 35.7366Z" fill="#AD80CE"/>
</svg>
