<?xml version="1.0" encoding="utf-8"?>
<!-- Generator: Adobe Illustrator 24.0.2, SVG Export Plug-In . SVG Version: 6.00 Build 0)  -->
<svg version="1.1" id="Layer_1" xmlns="http://www.w3.org/2000/svg" xmlns:xlink="http://www.w3.org/1999/xlink" x="0px" y="0px"
	 viewBox="0 0 184 60" style="enable-background:new 0 0 184 60;" xml:space="preserve">
<style type="text/css">
	.st0{fill:#AD80CE;}
	.st1{fill:#0F051A;}
</style>
<path class="st0" d="M17.3,48.2c-5,0-9.1-1.6-12.4-4.9C1.6,40,0,35.9,0,31c0-4.8,1.6-8.8,4.8-12c3.2-3.2,7.3-4.8,12.2-4.8
	c5.4,0,9.7,2,12.7,6c0.4,0.5,0.3,1-0.1,1.5l-5.1,4.9c-0.6,0.6-1.2,0.6-1.8,0c-1.6-1.5-3.3-2.2-5.2-2.2c-2.1,0-3.8,0.6-5,1.9
	c-1.2,1.3-1.8,2.9-1.8,4.7c0,1.9,0.6,3.5,1.9,4.9c1.3,1.4,3,2.1,5.1,2.1c1.8,0,3.5-0.8,5-2.3c0.6-0.6,1.2-0.6,1.8,0.1l5.1,4.9
	c0.5,0.5,0.5,1,0.1,1.5C26.7,46.2,22.6,48.2,17.3,48.2z"/>
<path class="st0" d="M55,14.1c3.4,0,6.3,1.2,8.5,3.6c2.2,2.4,3.3,5.7,3.3,9.8v18.8c0,0.3-0.1,0.6-0.3,0.8c-0.2,0.2-0.5,0.3-0.8,0.3
	h-9c-0.7,0-1.1-0.3-1.1-1.1v-16c0-4-1.6-6-4.9-6c-3.3,0-5,2-5,6v16c0,0.7-0.3,1.1-1.1,1.1h-9c-0.7,0-1.1-0.3-1.1-1.1V1.1
	c0-0.7,0.3-1.1,1.1-1.1h9c0.7,0,1.1,0.3,1.1,1.1v18.6C47.8,16,50.8,14.1,55,14.1z"/>
<path class="st0" d="M74,47.4c-0.7,0-1.1-0.3-1.1-1.1V16c0-0.7,0.3-1.1,1.1-1.1h9.2c0.7,0,1.1,0.4,1.1,1.1v30.4
	c0,0.7-0.3,1.1-1.1,1.1H74z"/>
<path class="st0" d="M91.6,60c-0.7,0-1.1-0.3-1.1-1.1V16c0-0.7,0.3-1.1,1.1-1.1h8.2c0.7,0,1.1,0.3,1.1,1.1l0.1,2.7
	c2.2-3,5.4-4.5,9.7-4.5c4.4,0,8,1.6,10.9,4.9c2.8,3.3,4.2,7.3,4.2,12.1c0,4.9-1.4,8.9-4.2,12.2c-2.8,3.3-6.5,4.9-10.9,4.9
	c-3.7,0-6.7-1.2-9-3.6v14.4c0,0.7-0.3,1.1-1.1,1.1L91.6,60L91.6,60z M103.4,36.2c1.2,1.3,2.8,1.9,4.8,1.9s3.6-0.6,4.8-1.9
	c1.3-1.3,1.9-3,1.9-5c0-2.1-0.6-3.8-1.9-5c-1.3-1.3-2.9-1.9-4.8-1.9c-2,0-3.6,0.6-4.8,1.9c-1.2,1.3-1.8,2.9-1.8,5
	C101.6,33.2,102.2,34.9,103.4,36.2z"/>
<path class="st0" d="M143.9,48.2c-4.4,0-8-1.6-10.9-4.9c-2.8-3.3-4.2-7.3-4.2-12.2c0-4.8,1.4-8.9,4.2-12.1c2.8-3.3,6.5-4.9,10.9-4.9
	c4.3,0,7.6,1.5,9.7,4.5l0.1-2.7c0-0.7,0.3-1.1,1.1-1.1h8.2c0.7,0,1.1,0.3,1.1,1.1v30.4c0,0.3-0.1,0.6-0.3,0.8
	c-0.2,0.2-0.5,0.3-0.8,0.3h-8.2c-0.7,0-1.1-0.3-1.1-1.1l-0.1-2.7C151.3,46.7,148,48.2,143.9,48.2z M141.5,36.2
	c1.3,1.3,2.9,1.9,4.8,1.9c1.9,0,3.5-0.6,4.8-1.9c1.2-1.3,1.9-3,1.9-5.1c0-2.1-0.6-3.7-1.8-5c-1.2-1.3-2.8-1.9-4.8-1.9
	c-1.9,0-3.6,0.6-4.8,1.9c-1.3,1.3-1.9,3-1.9,5C139.6,33.2,140.3,34.9,141.5,36.2z"/>
<path class="st1" d="M181.2,35.7c-1.2,1.2-2.7,1.9-4.5,1.9c-1.8,0-3.3-0.6-4.5-1.9c-1.3-1.2-1.9-2.7-1.9-4.5c0-1.8,0.6-3.4,1.9-4.6
	c1.3-1.3,2.8-1.9,4.5-1.9c1.8,0,3.3,0.6,4.5,1.9c1.2,1.3,1.9,2.8,1.9,4.6C183,33,182.4,34.5,181.2,35.7z"/>
</svg>
